<svg width="17" height="17" viewBox="0 0 17 17" fill="none" xmlns="http://www.w3.org/2000/svg">
<path fill-rule="evenodd" clip-rule="evenodd" d="M10.6955 6.85661C10.7845 7.00533 10.8108 7.18328 10.7686 7.35137C10.7264 7.51945 10.6192 7.66392 10.4706 7.75303L9.15376 8.54418V14.385C9.15376 14.5584 9.08488 14.7247 8.96226 14.8473C8.83964 14.97 8.67333 15.0388 8.49992 15.0388C8.32651 15.0388 8.1602 14.97 8.03758 14.8473C7.91496 14.7247 7.84607 14.5584 7.84607 14.385V10.1781L6.52857 9.38764C6.38331 9.29674 6.27953 9.15244 6.23959 8.98579C6.19964 8.81915 6.22672 8.64348 6.31498 8.49659C6.40325 8.34971 6.54566 8.24335 6.71156 8.2004C6.87745 8.15745 7.05358 8.18135 7.20203 8.26695L7.84607 8.65272V5.88499C7.84607 5.71158 7.91496 5.54527 8.03758 5.42265C8.1602 5.30003 8.32651 5.23114 8.49992 5.23114C8.67333 5.23114 8.83964 5.30003 8.96226 5.42265C9.08488 5.54527 9.15376 5.71158 9.15376 5.88499V7.01876L9.79846 6.63234C9.94708 6.54306 10.1251 6.51646 10.2933 6.5584C10.4615 6.60033 10.6062 6.70736 10.6955 6.85595M8.43453 3.26961C8.01346 3.26961 7.62311 3.43699 7.31646 3.7273C7.14515 3.89076 7.0013 4.09345 6.89734 4.32295C6.86201 4.40122 6.81161 4.47176 6.74901 4.53054C6.68642 4.58933 6.61286 4.63521 6.53253 4.66557C6.3703 4.72688 6.19037 4.72123 6.0323 4.64988C5.87424 4.57852 5.751 4.44729 5.68969 4.28506C5.62838 4.12284 5.63402 3.9429 5.70538 3.78484C5.87514 3.40708 6.1165 3.0658 6.41611 2.77988C6.95834 2.25725 7.68145 1.96422 8.43453 1.96191C9.21588 1.96191 9.92334 2.27576 10.453 2.77988C10.7498 3.06168 10.9917 3.40364 11.1637 3.78484C11.199 3.8631 11.2186 3.94756 11.2213 4.03339C11.224 4.11922 11.2097 4.20474 11.1794 4.28506C11.149 4.36539 11.1031 4.43895 11.0444 4.50155C10.9856 4.56414 10.915 4.61454 10.8368 4.64988C10.7585 4.68521 10.674 4.70478 10.5882 4.70747C10.5024 4.71017 10.4169 4.69593 10.3365 4.66557C10.1743 4.60426 10.0431 4.48102 9.97173 4.32295C9.87153 4.09938 9.72898 3.89733 9.55196 3.72795C9.25282 3.43634 8.85228 3.27205 8.43453 3.26961Z" fill="#007E33"/>
<path fill-rule="evenodd" clip-rule="evenodd" d="M9.92741 4.11507C9.91064 3.9416 9.96252 3.76846 10.0719 3.63278C10.1813 3.49711 10.3395 3.4097 10.5126 3.3893C12.2165 3.1938 13.6654 4.51719 13.8354 6.23353C13.9505 7.39215 13.4673 8.49126 12.6232 9.15557C12.5563 9.2091 12.4795 9.24884 12.3971 9.2725C12.3148 9.29616 12.2286 9.30327 12.1434 9.29343C12.0583 9.28358 11.976 9.25696 11.9012 9.21512C11.8265 9.17328 11.7607 9.11704 11.7078 9.04965C11.6025 8.91149 11.556 8.73733 11.5784 8.56505C11.6008 8.39277 11.6903 8.2363 11.8275 8.12969C12.3048 7.75372 12.6075 7.10315 12.5363 6.38261C12.4284 5.29526 11.5411 4.5878 10.6414 4.69111C10.5566 4.70117 10.4706 4.69418 10.3885 4.67057C10.3064 4.64695 10.2299 4.60718 10.1634 4.55359C10.0969 4.49999 10.0418 4.43365 10.0012 4.35846C9.9607 4.28327 9.93561 4.20009 9.92741 4.11507Z" fill="#007E33"/>
<path fill-rule="evenodd" clip-rule="evenodd" d="M12.0421 8.0766C12.2114 8.03687 12.3896 8.06535 12.5381 8.15588C12.6866 8.24641 12.7936 8.39173 12.8359 8.56045C12.9215 8.89849 12.9529 9.25941 12.9209 9.62753C12.7803 11.2379 11.2823 12.3456 9.85957 12.2017C9.4738 12.1625 9.05861 12.0879 8.68853 11.8735C8.29295 11.6446 8.01376 11.2942 7.82872 10.8273C7.79663 10.748 7.7806 10.663 7.78157 10.5774C7.78253 10.4918 7.80047 10.4072 7.83434 10.3286C7.86821 10.25 7.91734 10.1788 7.97889 10.1193C8.04044 10.0598 8.11319 10.0131 8.19291 9.98191C8.35547 9.92036 8.53574 9.92538 8.69462 9.99589C8.8535 10.0664 8.97818 10.1967 9.0416 10.3585C9.13511 10.5952 9.2358 10.6874 9.33061 10.7423C9.45091 10.8123 9.63791 10.8646 9.97334 10.8993C10.7056 10.9731 11.5445 10.3598 11.6197 9.4961C11.6393 9.2738 11.6197 9.06195 11.5707 8.86645C11.5491 8.78366 11.5441 8.6974 11.5562 8.61268C11.5682 8.52797 11.5969 8.44649 11.6407 8.37299C11.6845 8.29949 11.7425 8.23543 11.8113 8.18455C11.8801 8.13367 11.959 8.09697 12.0421 8.0766ZM6.94472 4.11495C6.96131 3.94151 6.90937 3.76846 6.80001 3.63283C6.69064 3.49719 6.53254 3.40974 6.35953 3.38918C4.6556 3.19433 3.20734 4.51772 3.03668 6.23407C2.92226 7.39268 3.4048 8.4918 4.24957 9.1561C4.31647 9.20963 4.39331 9.24937 4.47566 9.27304C4.55801 9.2967 4.64423 9.30381 4.72934 9.29396C4.81445 9.28411 4.89677 9.2575 4.97154 9.21565C5.0463 9.17381 5.11204 9.11757 5.16495 9.05018C5.27028 8.91202 5.3168 8.73786 5.2944 8.56558C5.27199 8.3933 5.18247 8.23684 5.0453 8.13022C4.56734 7.75426 4.2646 7.10368 4.33587 6.38314C4.44376 5.2958 5.33103 4.58768 6.23137 4.69099C6.31619 4.70105 6.40217 4.69406 6.48426 4.67045C6.56634 4.64683 6.64288 4.60706 6.70939 4.55346C6.7759 4.49987 6.83103 4.43353 6.87155 4.35834C6.91208 4.28315 6.93717 4.20062 6.94537 4.1156" fill="#007E33"/>
<path fill-rule="evenodd" clip-rule="evenodd" d="M4.83083 8.07723C4.6614 8.0373 4.48306 8.06569 4.33439 8.15623C4.18572 8.24678 4.07868 8.39221 4.0364 8.56107C3.94853 8.9095 3.9198 9.27021 3.95141 9.62815C4.09264 11.2386 5.5906 12.3462 7.01271 12.2023C7.39914 12.1631 7.81433 12.0886 8.1844 11.8741C8.57998 11.6453 8.85917 11.2948 9.04421 10.828C9.0763 10.7486 9.09233 10.6636 9.09137 10.578C9.0904 10.4924 9.07247 10.4079 9.03859 10.3292C9.00472 10.2506 8.95559 10.1795 8.89404 10.12C8.83249 10.0604 8.75975 10.0137 8.68002 9.98253C8.51746 9.92098 8.33719 9.92601 8.17831 9.99651C8.01943 10.067 7.89476 10.1973 7.83133 10.3592C7.73783 10.5958 7.63714 10.688 7.54167 10.743C7.42137 10.8129 7.23502 10.8652 6.8996 10.8999C6.16729 10.9738 5.32841 10.3605 5.25321 9.49673C5.2336 9.27442 5.25321 9.06257 5.30225 8.86707C5.32386 8.78424 5.32877 8.69793 5.3167 8.61318C5.30464 8.52843 5.27582 8.44693 5.23195 8.37342C5.18808 8.29991 5.13002 8.23587 5.06115 8.18502C4.99229 8.13417 4.91399 8.09753 4.83083 8.07723Z" fill="#007E33"/>
<path fill-rule="evenodd" clip-rule="evenodd" d="M8.5 15.6923C12.4721 15.6923 15.6923 12.4721 15.6923 8.5C15.6923 4.52788 12.4721 1.30769 8.5 1.30769C4.52788 1.30769 1.30769 4.52788 1.30769 8.5C1.30769 12.4721 4.52788 15.6923 8.5 15.6923ZM8.5 17C13.1946 17 17 13.1946 17 8.5C17 3.80538 13.1946 0 8.5 0C3.80538 0 0 3.80538 0 8.5C0 13.1946 3.80538 17 8.5 17Z" fill="#007E33"/>
</svg>
