<svg xmlns="http://www.w3.org/2000/svg" xmlns:xlink="http://www.w3.org/1999/xlink" width="500" zoomAndPan="magnify" viewBox="0 0 375 122.249994" height="163" preserveAspectRatio="xMidYMid meet" version="1.0"><defs><g/><clipPath id="7dd255fc20"><path d="M 9.257812 0 L 106.757812 0 L 106.757812 121 L 9.257812 121 Z M 9.257812 0 " clip-rule="nonzero"/></clipPath><clipPath id="569fd23da0"><path d="M 25 22.238281 L 114.933594 22.238281 L 114.933594 94 L 25 94 Z M 25 22.238281 " clip-rule="nonzero"/></clipPath></defs><g clip-path="url(#7dd255fc20)"><path fill="#087c32" d="M 9.601562 60.164062 C 9.789062 56.304688 12.359375 52.96875 15.53125 50.953125 C 40.5 34.988281 65.460938 19.007812 90.4375 3.054688 C 93.324219 1.152344 96.992188 0 100.398438 1.066406 C 104.5625 2.257812 106.734375 6.78125 106.570312 10.871094 C 106.605469 44.046875 106.597656 77.222656 106.625 110.402344 C 106.675781 114.015625 105.15625 118.015625 101.742188 119.679688 C 98.199219 121.507812 93.921875 120.417969 90.730469 118.363281 C 65.742188 102.453125 40.757812 86.519531 15.777344 70.601562 C 12.199219 68.433594 9.289062 64.507812 9.601562 60.164062 Z M 9.601562 60.164062 " fill-opacity="1" fill-rule="nonzero"/></g><g clip-path="url(#569fd23da0)"><path fill="#ffffff" d="M 114.464844 55.238281 L 113.414062 52.269531 C 112.835938 50.640625 111.019531 49.300781 109.390625 49.300781 L 105.65625 49.300781 C 102.878906 41.542969 99.527344 32.15625 98.472656 29.957031 C 96.941406 26.507812 92.058594 24.976562 89.375 24.210938 C 89.375 24.210938 84.875 22.484375 69.839844 22.484375 C 54.804688 22.484375 50.402344 24.210938 50.402344 24.210938 C 47.242188 25.261719 42.835938 26.796875 41.113281 30.050781 C 40.25 31.679688 36.800781 41.253906 34.023438 49.300781 L 30.386719 49.300781 C 28.757812 49.300781 26.9375 50.640625 26.363281 52.269531 L 25.3125 55.238281 C 24.734375 56.863281 25.597656 58.207031 27.226562 58.207031 L 30.960938 58.207031 C 30.480469 59.546875 30.195312 60.3125 30.195312 60.3125 C 29.90625 60.789062 29.714844 62.992188 29.714844 63.664062 L 29.714844 90.765625 C 29.714844 92.488281 31.152344 93.925781 32.875 93.925781 L 44.367188 93.925781 C 46.089844 93.925781 47.527344 92.488281 47.527344 90.765625 L 47.527344 85.019531 L 92.25 85.019531 L 92.25 90.765625 C 92.25 92.488281 93.683594 93.925781 95.410156 93.925781 L 106.996094 93.925781 C 108.71875 93.925781 110.15625 92.488281 110.15625 90.765625 L 110.15625 63.664062 C 110.15625 63.089844 109.964844 60.789062 109.675781 60.3125 C 109.675781 60.3125 109.390625 59.546875 108.910156 58.207031 L 112.550781 58.207031 C 114.082031 58.207031 114.945312 56.863281 114.464844 55.238281 Z M 47.527344 71.898438 L 43.695312 69.3125 C 36.609375 68.738281 35.75 71.230469 34.214844 68.546875 L 34.214844 65.292969 C 34.214844 62.132812 36.035156 62.035156 38.046875 62.035156 C 39.960938 62.035156 43.792969 63.664062 46.378906 64.8125 C 49.15625 66.058594 51.167969 65.003906 52.21875 69.121094 C 52.125 71.039062 51.070312 71.898438 47.527344 71.898438 Z M 40.824219 50.542969 C 43.21875 40.777344 47.242188 33.976562 47.816406 32.347656 C 48.199219 31.199219 47.242188 29.09375 69.9375 29.09375 C 92.632812 29.09375 91.386719 32.15625 91.484375 32.253906 C 92.535156 34.457031 96.75 41.636719 98.953125 50.542969 C 98.953125 50.542969 90.429688 51.691406 70.988281 51.691406 C 51.550781 51.691406 40.824219 50.542969 40.824219 50.542969 Z M 87.652344 69.121094 C 92.152344 63.566406 90.714844 66.058594 93.492188 64.8125 C 95.984375 63.664062 99.910156 62.035156 101.824219 62.035156 C 103.835938 62.035156 105.65625 62.132812 105.65625 65.292969 L 105.65625 68.546875 C 104.21875 71.132812 102.972656 68.835938 95.792969 69.503906 L 92.25 71.804688 C 88.707031 71.898438 86.40625 70.558594 87.652344 69.121094 Z M 87.652344 69.121094 " fill-opacity="1" fill-rule="nonzero"/></g><g fill="#030009" fill-opacity="1"><g transform="translate(114.945852, 69.515434)"><g><path d="M 24.640625 0 L 24.640625 -6.9375 L 10.859375 -6.9375 L 10.859375 -16.0625 L 24.0625 -16.0625 L 24.0625 -23 L 10.859375 -23 L 10.859375 -32.21875 L 24.640625 -32.21875 L 24.640625 -39.171875 L 3.609375 -39.171875 L 3.609375 0 Z M 24.640625 0 "/></g></g></g><g fill="#030009" fill-opacity="1"><g transform="translate(142.49857, 69.515434)"><g><path d="M 31.859375 -9.640625 L 23.90625 -9.640625 C 22.15625 -6.9375 20.140625 -5.78125 17.21875 -5.78125 C 12.34375 -5.78125 8.6875 -9.59375 8.6875 -14.734375 C 8.6875 -19.875 12.1875 -23.578125 17.0625 -23.578125 C 20.25 -23.578125 22.46875 -22.265625 23.90625 -19.5625 L 31.859375 -19.5625 C 29.578125 -26.28125 23.75 -30.046875 17.0625 -30.046875 C 8.375 -30.046875 1.59375 -23.3125 1.59375 -14.6875 C 1.59375 -6.140625 8.59375 0.6875 17.28125 0.6875 C 24.109375 0.6875 29.421875 -3.078125 31.859375 -9.640625 Z M 31.859375 -9.640625 "/></g></g></g><g fill="#030009" fill-opacity="1"><g transform="translate(176.409604, 69.515434)"><g><path d="M 32.8125 -14.46875 C 32.8125 -23.21875 25.96875 -30.046875 17.125 -30.046875 C 8.59375 -30.046875 1.59375 -23.109375 1.59375 -14.6875 C 1.59375 -6.203125 8.59375 0.6875 17.171875 0.6875 C 25.703125 0.6875 32.8125 -6.203125 32.8125 -14.46875 Z M 25.703125 -14.6875 C 25.703125 -9.75 21.890625 -5.78125 17.21875 -5.78125 C 12.453125 -5.78125 8.6875 -9.75 8.6875 -14.78125 C 8.6875 -19.609375 12.5625 -23.578125 17.171875 -23.578125 C 21.890625 -23.578125 25.703125 -19.5625 25.703125 -14.6875 Z M 25.703125 -14.6875 "/></g></g></g><g fill="#030009" fill-opacity="1"><g transform="translate(210.320638, 69.515434)"><g><path d="M 44.515625 0 L 44.515625 -39.171875 L 34.5625 -39.171875 L 24.109375 -9.484375 L 13.5625 -39.171875 L 3.609375 -39.171875 L 3.609375 0 L 10.859375 0 L 10.859375 -29.359375 L 21.09375 0 L 27.03125 0 L 37.265625 -29.359375 L 37.265625 0 Z M 44.515625 0 "/></g></g></g><g fill="#030009" fill-opacity="1"><g transform="translate(258.008032, 69.515434)"><g><path d="M 32.8125 -14.46875 C 32.8125 -23.21875 25.96875 -30.046875 17.125 -30.046875 C 8.59375 -30.046875 1.59375 -23.109375 1.59375 -14.6875 C 1.59375 -6.203125 8.59375 0.6875 17.171875 0.6875 C 25.703125 0.6875 32.8125 -6.203125 32.8125 -14.46875 Z M 25.703125 -14.6875 C 25.703125 -9.75 21.890625 -5.78125 17.21875 -5.78125 C 12.453125 -5.78125 8.6875 -9.75 8.6875 -14.78125 C 8.6875 -19.609375 12.5625 -23.578125 17.171875 -23.578125 C 21.890625 -23.578125 25.703125 -19.5625 25.703125 -14.6875 Z M 25.703125 -14.6875 "/></g></g></g><g fill="#030009" fill-opacity="1"><g transform="translate(291.919066, 69.515434)"><g><path d="M 29.3125 -29.359375 L 21.359375 -29.359375 L 14.6875 -9.90625 L 7.890625 -29.359375 L 0.046875 -29.359375 L 11.875 0 L 17.484375 0 Z M 29.3125 -29.359375 "/></g></g></g><g fill="#030009" fill-opacity="1"><g transform="translate(321.591227, 69.515434)"><g><path d="M 32.21875 -14.25 C 32.21875 -23.375 25.8125 -30.046875 17.0625 -30.046875 C 8.421875 -30.046875 1.59375 -23.21875 1.59375 -14.578125 C 1.59375 -5.984375 8.53125 0.6875 17.484375 0.6875 C 23.421875 0.6875 29.515625 -2.65625 31.484375 -8.6875 L 23.796875 -8.6875 C 22 -6.578125 20.25 -5.78125 17.328125 -5.78125 C 13.140625 -5.78125 10.0625 -8 9.21875 -11.546875 L 31.953125 -11.546875 C 32.171875 -12.5625 32.21875 -13.203125 32.21875 -14.25 Z M 25.28125 -17.75 L 9.015625 -17.75 C 10.125 -21.515625 12.984375 -23.578125 17.171875 -23.578125 C 21.515625 -23.578125 24.375 -21.515625 25.28125 -17.75 Z M 25.28125 -17.75 "/></g></g></g><g fill="#000000" fill-opacity="1"><g transform="translate(114.945852, 94.581087)"><g><path d="M 6.734375 -11.625 C 6.140625 -11.6875 5.875 -11.6875 5.25 -11.6875 L 1.6875 -11.6875 L 1.6875 0 L 5.171875 0 C 5.796875 0 6.0625 0 6.65625 -0.0625 C 9.359375 -0.40625 11.359375 -2.546875 11.359375 -5.984375 C 11.359375 -9.46875 9.453125 -11.28125 6.734375 -11.625 Z M 6.5 -1.265625 C 6.125 -1.203125 5.6875 -1.1875 5.078125 -1.1875 L 3.15625 -1.1875 L 3.15625 -10.5 L 5.171875 -10.5 C 5.78125 -10.5 6.21875 -10.484375 6.59375 -10.421875 C 8.578125 -10.09375 9.765625 -8.578125 9.765625 -5.984375 C 9.765625 -3.21875 8.484375 -1.59375 6.5 -1.265625 Z M 6.5 -1.265625 "/></g></g></g><g fill="#000000" fill-opacity="1"><g transform="translate(127.3451, 94.581087)"><g><path d="M 5.0625 -9.828125 L 6.5 -11.6875 L 5.15625 -11.6875 L 4.109375 -9.828125 Z M 8.625 -4.75 C 8.625 -7.375 7.25 -9.21875 4.78125 -9.21875 C 2.328125 -9.21875 0.515625 -7.375 0.515625 -4.453125 C 0.515625 -1.28125 2.25 0.234375 4.59375 0.234375 C 6.4375 0.234375 8.140625 -0.734375 8.5 -2.890625 L 6.984375 -2.890625 C 6.78125 -1.609375 5.828125 -0.875 4.65625 -0.875 C 3.34375 -0.875 2.21875 -1.671875 2.078125 -4.046875 L 8.59375 -4.046875 C 8.625 -4.375 8.625 -4.609375 8.625 -4.75 Z M 4.75 -8.09375 C 6.21875 -8.09375 7.015625 -7.03125 7.140625 -5.171875 L 2.09375 -5.171875 C 2.265625 -7.078125 3.3125 -8.09375 4.75 -8.09375 Z M 4.75 -8.09375 "/></g></g></g><g fill="#000000" fill-opacity="1"><g transform="translate(137.034177, 94.581087)"><g><path d="M 5.765625 -9.21875 C 4.84375 -9.21875 3.890625 -8.921875 3.390625 -8.5 L 2.703125 -7.53125 L 2.703125 -8.984375 L 1.25 -8.984375 L 1.25 3.3125 L 2.703125 3.3125 L 2.703125 -1.234375 L 3.296875 -0.359375 C 3.765625 0.015625 4.703125 0.234375 5.453125 0.234375 C 7.78125 0.234375 9.84375 -1.296875 9.84375 -4.625 C 9.84375 -7.25 8.390625 -9.21875 5.765625 -9.21875 Z M 5.453125 -0.875 C 4.171875 -0.875 2.703125 -1.765625 2.703125 -4.078125 L 2.703125 -4.578125 C 2.703125 -7.140625 4.046875 -8.09375 5.53125 -8.09375 C 7.328125 -8.09375 8.25 -6.484375 8.25 -4.453125 C 8.25 -2.09375 7.03125 -0.875 5.453125 -0.875 Z M 5.453125 -0.875 "/></g></g></g><g fill="#000000" fill-opacity="1"><g transform="translate(147.77345, 94.581087)"><g><path d="M 2.640625 -12.453125 L 1.1875 -12.453125 L 1.1875 -2.53125 C 1.1875 -2.03125 1.1875 -1.640625 1.203125 -1.34375 C 1.25 -0.203125 1.875 0.0625 2.734375 0.0625 C 3.0625 0.0625 3.4375 0.046875 3.765625 0 L 3.765625 -1.046875 C 2.96875 -0.96875 2.6875 -1.15625 2.65625 -1.734375 C 2.640625 -2.015625 2.640625 -2.296875 2.640625 -2.578125 Z M 2.640625 -12.453125 "/></g></g></g><g fill="#000000" fill-opacity="1"><g transform="translate(152.34708, 94.581087)"><g><path d="M 6.40625 0 L 7.859375 0 C 7.71875 -1 7.6875 -1.609375 7.6875 -2.28125 L 7.6875 -5.65625 C 7.6875 -6.046875 7.671875 -6.484375 7.640625 -6.84375 C 7.484375 -8.3125 6.59375 -9.21875 4.453125 -9.21875 C 2.46875 -9.21875 1.140625 -8.109375 1 -6.203125 L 2.53125 -6.203125 C 2.625 -7.4375 3.234375 -8.09375 4.453125 -8.09375 C 5.65625 -8.09375 6.125 -7.546875 6.203125 -6.71875 C 6.234375 -6.390625 6.234375 -6.03125 6.234375 -5.640625 L 6.234375 -5.40625 L 5.65625 -5.40625 C 2.140625 -5.40625 0.609375 -4.359375 0.609375 -2.328125 C 0.609375 -0.65625 1.875 0.234375 3.5 0.234375 C 4.375 0.234375 5.15625 0.109375 5.765625 -0.328125 L 6.25 -1.28125 Z M 4 -0.875 C 2.890625 -0.875 2.203125 -1.359375 2.203125 -2.4375 C 2.203125 -3.984375 3.765625 -4.5 6.234375 -4.3125 L 6.234375 -3.40625 C 6.234375 -1.78125 5.359375 -0.875 4 -0.875 Z M 4 -0.875 "/></g></g></g><g fill="#000000" fill-opacity="1"><g transform="translate(161.731259, 94.581087)"><g><path d="M 4.71875 -9.21875 C 2.46875 -9.21875 0.515625 -7.5 0.515625 -4.46875 C 0.515625 -1.1875 2.234375 0.234375 4.5 0.234375 C 6.5 0.234375 8 -0.78125 8.4375 -2.859375 L 6.90625 -2.859375 C 6.609375 -1.5625 5.78125 -0.875 4.59375 -0.875 C 3.25 -0.875 2.09375 -1.96875 2.09375 -4.578125 C 2.09375 -7 3.28125 -8.09375 4.6875 -8.09375 C 5.890625 -8.09375 6.671875 -7.40625 7 -5.96875 L 8.515625 -5.96875 C 8.25 -7.921875 6.875 -9.21875 4.71875 -9.21875 Z M 4.71875 -9.21875 "/></g></g></g><g fill="#000000" fill-opacity="1"><g transform="translate(171.081565, 94.581087)"><g><path d="M 8.625 -4.75 C 8.625 -7.375 7.25 -9.21875 4.78125 -9.21875 C 2.328125 -9.21875 0.515625 -7.375 0.515625 -4.453125 C 0.515625 -1.28125 2.25 0.234375 4.59375 0.234375 C 6.4375 0.234375 8.140625 -0.734375 8.5 -2.890625 L 6.984375 -2.890625 C 6.78125 -1.609375 5.828125 -0.875 4.65625 -0.875 C 3.34375 -0.875 2.21875 -1.671875 2.078125 -4.046875 L 8.59375 -4.046875 C 8.625 -4.375 8.625 -4.609375 8.625 -4.75 Z M 4.75 -8.09375 C 6.21875 -8.09375 7.015625 -7.03125 7.140625 -5.171875 L 2.09375 -5.171875 C 2.265625 -7.078125 3.3125 -8.09375 4.75 -8.09375 Z M 4.75 -8.09375 "/></g></g></g><g fill="#000000" fill-opacity="1"><g transform="translate(180.770641, 94.581087)"><g><path d="M 13.1875 -7.03125 C 12.984375 -8.265625 12.078125 -9.21875 10.46875 -9.21875 C 9.671875 -9.21875 9.03125 -9.0625 8.578125 -8.6875 L 7.78125 -7.53125 C 7.4375 -8.515625 6.5625 -9.21875 5.1875 -9.21875 C 4.390625 -9.21875 3.75 -9.0625 3.28125 -8.6875 L 2.703125 -7.671875 L 2.703125 -8.984375 L 1.25 -8.984375 L 1.25 0 L 2.703125 0 L 2.703125 -4.4375 C 2.703125 -7.171875 3.546875 -8.0625 4.671875 -8.0625 C 5.6875 -8.0625 6.328125 -7.578125 6.46875 -6.5625 C 6.515625 -6.09375 6.53125 -5.609375 6.53125 -4.8125 L 6.53125 0 L 8 0 L 8 -4.4375 C 8 -7.171875 8.828125 -8.0625 9.953125 -8.0625 C 10.96875 -8.0625 11.625 -7.578125 11.75 -6.5625 C 11.8125 -6.09375 11.828125 -5.609375 11.828125 -4.8125 L 11.828125 0 L 13.28125 0 L 13.28125 -5.484375 C 13.28125 -6.21875 13.265625 -6.578125 13.1875 -7.03125 Z M 13.1875 -7.03125 "/></g></g></g><g fill="#000000" fill-opacity="1"><g transform="translate(195.642926, 94.581087)"><g><path d="M 8.625 -4.75 C 8.625 -7.375 7.25 -9.21875 4.78125 -9.21875 C 2.328125 -9.21875 0.515625 -7.375 0.515625 -4.453125 C 0.515625 -1.28125 2.25 0.234375 4.59375 0.234375 C 6.4375 0.234375 8.140625 -0.734375 8.5 -2.890625 L 6.984375 -2.890625 C 6.78125 -1.609375 5.828125 -0.875 4.65625 -0.875 C 3.34375 -0.875 2.21875 -1.671875 2.078125 -4.046875 L 8.59375 -4.046875 C 8.625 -4.375 8.625 -4.609375 8.625 -4.75 Z M 4.75 -8.09375 C 6.21875 -8.09375 7.015625 -7.03125 7.140625 -5.171875 L 2.09375 -5.171875 C 2.265625 -7.078125 3.3125 -8.09375 4.75 -8.09375 Z M 4.75 -8.09375 "/></g></g></g><g fill="#000000" fill-opacity="1"><g transform="translate(205.332005, 94.581087)"><g><path d="M 8.8125 -6.59375 C 8.671875 -8.15625 7.578125 -9.21875 5.609375 -9.21875 C 4.6875 -9.21875 4.03125 -9.0625 3.265625 -8.46875 L 2.703125 -7.4375 L 2.703125 -8.984375 L 1.25 -8.984375 L 1.25 0 L 2.703125 0 L 2.703125 -3.953125 C 2.703125 -7.015625 3.890625 -8.0625 5.296875 -8.0625 C 6.6875 -8.0625 7.265625 -7.28125 7.34375 -6.234375 C 7.390625 -5.78125 7.390625 -5.40625 7.390625 -4.953125 L 7.390625 0 L 8.84375 0 L 8.84375 -5.046875 C 8.84375 -5.78125 8.84375 -6.125 8.8125 -6.59375 Z M 8.8125 -6.59375 "/></g></g></g><g fill="#000000" fill-opacity="1"><g transform="translate(215.766383, 94.581087)"><g><path d="M 3 -7.796875 L 4.671875 -7.796875 L 4.671875 -8.90625 L 3 -8.90625 L 3 -11 L 1.546875 -11 L 1.546875 -8.90625 L 0.34375 -8.90625 L 0.34375 -7.796875 L 1.546875 -7.796875 L 1.546875 -2.5625 C 1.546875 -2.046875 1.546875 -1.671875 1.5625 -1.4375 C 1.640625 -0.328125 2.21875 0.140625 3.34375 0.140625 C 3.75 0.140625 4.15625 0.125 4.578125 0.046875 L 4.578125 -1.015625 C 3.4375 -0.875 3.078125 -1.0625 3.015625 -1.9375 C 3 -2.171875 3 -2.328125 3 -2.625 Z M 3 -7.796875 "/></g></g></g><g fill="#000000" fill-opacity="1"><g transform="translate(221.457958, 94.581087)"><g><path d="M 3.859375 -9.21875 C 2.015625 -9.21875 0.765625 -8.234375 0.765625 -6.59375 C 0.765625 -5.015625 2.046875 -4.359375 3.65625 -3.90625 C 5.171875 -3.5 5.78125 -3.046875 5.78125 -2.1875 C 5.78125 -1.328125 5 -0.875 4.03125 -0.875 C 3 -0.875 2.171875 -1.34375 1.9375 -2.640625 L 0.40625 -2.640625 C 0.671875 -0.609375 2.078125 0.234375 3.921875 0.234375 C 5.828125 0.234375 7.265625 -0.609375 7.265625 -2.296875 C 7.265625 -3.828125 6.28125 -4.640625 4.21875 -5.1875 C 3 -5.5 2.25 -5.859375 2.25 -6.765625 C 2.25 -7.53125 2.734375 -8.09375 3.75 -8.09375 C 4.796875 -8.09375 5.4375 -7.46875 5.640625 -6.421875 L 7.171875 -6.421875 C 6.984375 -8.0625 5.875 -9.21875 3.859375 -9.21875 Z M 3.859375 -9.21875 "/></g></g></g><g fill="#000000" fill-opacity="1"><g transform="translate(229.622567, 94.581087)"><g/></g></g><g fill="#000000" fill-opacity="1"><g transform="translate(233.671103, 94.581087)"><g><path d="M 5.765625 -9.21875 C 4.84375 -9.21875 3.890625 -8.921875 3.390625 -8.5 L 2.703125 -7.53125 L 2.703125 -8.984375 L 1.25 -8.984375 L 1.25 3.3125 L 2.703125 3.3125 L 2.703125 -1.234375 L 3.296875 -0.359375 C 3.765625 0.015625 4.703125 0.234375 5.453125 0.234375 C 7.78125 0.234375 9.84375 -1.296875 9.84375 -4.625 C 9.84375 -7.25 8.390625 -9.21875 5.765625 -9.21875 Z M 5.453125 -0.875 C 4.171875 -0.875 2.703125 -1.765625 2.703125 -4.078125 L 2.703125 -4.578125 C 2.703125 -7.140625 4.046875 -8.09375 5.53125 -8.09375 C 7.328125 -8.09375 8.25 -6.484375 8.25 -4.453125 C 8.25 -2.09375 7.03125 -0.875 5.453125 -0.875 Z M 5.453125 -0.875 "/></g></g></g><g fill="#000000" fill-opacity="1"><g transform="translate(244.410378, 94.581087)"><g><path d="M 4.96875 -9.21875 C 1.90625 -9.21875 0.515625 -7.03125 0.515625 -4.484375 C 0.515625 -1.96875 1.90625 0.234375 4.96875 0.234375 C 8.015625 0.234375 9.421875 -1.96875 9.421875 -4.484375 C 9.421875 -7.03125 8.015625 -9.21875 4.96875 -9.21875 Z M 4.96875 -0.875 C 3.15625 -0.875 2.09375 -2.390625 2.09375 -4.484375 C 2.09375 -6.609375 3.15625 -8.09375 4.96875 -8.09375 C 6.78125 -8.09375 7.828125 -6.609375 7.828125 -4.484375 C 7.828125 -2.390625 6.78125 -0.875 4.96875 -0.875 Z M 4.96875 -0.875 "/></g></g></g><g fill="#000000" fill-opacity="1"><g transform="translate(254.726194, 94.581087)"><g><path d="M 8.703125 -8.984375 L 7.25 -8.984375 L 7.25 -5.03125 C 7.25 -1.96875 6.125 -0.921875 4.71875 -0.921875 C 3.5 -0.921875 2.78125 -1.609375 2.640625 -2.625 C 2.59375 -3.078125 2.578125 -3.578125 2.578125 -3.859375 L 2.578125 -8.984375 L 1.125 -8.984375 L 1.125 -3.59375 C 1.125 -2.859375 1.140625 -2.5 1.203125 -2.046875 C 1.40625 -0.8125 2.484375 0.234375 4.359375 0.234375 C 5.265625 0.234375 5.921875 0.078125 6.6875 -0.46875 L 7.25 -1.53125 L 7.25 0 L 8.703125 0 Z M 8.703125 -8.984375 "/></g></g></g><g fill="#000000" fill-opacity="1"><g transform="translate(265.143643, 94.581087)"><g><path d="M 4.78125 -9.1875 C 4.359375 -9.1875 3.890625 -9.03125 3.515625 -8.78125 L 2.703125 -7.578125 L 2.703125 -8.984375 L 1.25 -8.984375 L 1.25 0 L 2.703125 0 L 2.703125 -5.109375 C 2.703125 -7.171875 3.859375 -8.0625 5.390625 -7.953125 L 5.390625 -9.0625 C 5.21875 -9.140625 5.015625 -9.1875 4.78125 -9.1875 Z M 4.78125 -9.1875 "/></g></g></g><g fill="#000000" fill-opacity="1"><g transform="translate(271.123185, 94.581087)"><g/></g></g><g fill="#000000" fill-opacity="1"><g transform="translate(275.171727, 94.581087)"><g><path d="M 8.625 -4.75 C 8.625 -7.375 7.25 -9.21875 4.78125 -9.21875 C 2.328125 -9.21875 0.515625 -7.375 0.515625 -4.453125 C 0.515625 -1.28125 2.25 0.234375 4.59375 0.234375 C 6.4375 0.234375 8.140625 -0.734375 8.5 -2.890625 L 6.984375 -2.890625 C 6.78125 -1.609375 5.828125 -0.875 4.65625 -0.875 C 3.34375 -0.875 2.21875 -1.671875 2.078125 -4.046875 L 8.59375 -4.046875 C 8.625 -4.375 8.625 -4.609375 8.625 -4.75 Z M 4.75 -8.09375 C 6.21875 -8.09375 7.015625 -7.03125 7.140625 -5.171875 L 2.09375 -5.171875 C 2.265625 -7.078125 3.3125 -8.09375 4.75 -8.09375 Z M 4.75 -8.09375 "/></g></g></g><g fill="#000000" fill-opacity="1"><g transform="translate(284.860807, 94.581087)"><g><path d="M 8.8125 -6.59375 C 8.671875 -8.15625 7.578125 -9.21875 5.609375 -9.21875 C 4.6875 -9.21875 4.03125 -9.0625 3.265625 -8.46875 L 2.703125 -7.4375 L 2.703125 -8.984375 L 1.25 -8.984375 L 1.25 0 L 2.703125 0 L 2.703125 -3.953125 C 2.703125 -7.015625 3.890625 -8.0625 5.296875 -8.0625 C 6.6875 -8.0625 7.265625 -7.28125 7.34375 -6.234375 C 7.390625 -5.78125 7.390625 -5.40625 7.390625 -4.953125 L 7.390625 0 L 8.84375 0 L 8.84375 -5.046875 C 8.84375 -5.78125 8.84375 -6.125 8.8125 -6.59375 Z M 8.8125 -6.59375 "/></g></g></g><g fill="#000000" fill-opacity="1"><g transform="translate(295.295185, 94.581087)"><g><path d="M 3 -7.796875 L 4.671875 -7.796875 L 4.671875 -8.90625 L 3 -8.90625 L 3 -11 L 1.546875 -11 L 1.546875 -8.90625 L 0.34375 -8.90625 L 0.34375 -7.796875 L 1.546875 -7.796875 L 1.546875 -2.5625 C 1.546875 -2.046875 1.546875 -1.671875 1.5625 -1.4375 C 1.640625 -0.328125 2.21875 0.140625 3.34375 0.140625 C 3.75 0.140625 4.15625 0.125 4.578125 0.046875 L 4.578125 -1.015625 C 3.4375 -0.875 3.078125 -1.0625 3.015625 -1.9375 C 3 -2.171875 3 -2.328125 3 -2.625 Z M 3 -7.796875 "/></g></g></g><g fill="#000000" fill-opacity="1"><g transform="translate(300.98676, 94.581087)"><g><path d="M 4.78125 -9.1875 C 4.359375 -9.1875 3.890625 -9.03125 3.515625 -8.78125 L 2.703125 -7.578125 L 2.703125 -8.984375 L 1.25 -8.984375 L 1.25 0 L 2.703125 0 L 2.703125 -5.109375 C 2.703125 -7.171875 3.859375 -8.0625 5.390625 -7.953125 L 5.390625 -9.0625 C 5.21875 -9.140625 5.015625 -9.1875 4.78125 -9.1875 Z M 4.78125 -9.1875 "/></g></g></g><g fill="#000000" fill-opacity="1"><g transform="translate(306.966302, 94.581087)"><g><path d="M 8.625 -4.75 C 8.625 -7.375 7.25 -9.21875 4.78125 -9.21875 C 2.328125 -9.21875 0.515625 -7.375 0.515625 -4.453125 C 0.515625 -1.28125 2.25 0.234375 4.59375 0.234375 C 6.4375 0.234375 8.140625 -0.734375 8.5 -2.890625 L 6.984375 -2.890625 C 6.78125 -1.609375 5.828125 -0.875 4.65625 -0.875 C 3.34375 -0.875 2.21875 -1.671875 2.078125 -4.046875 L 8.59375 -4.046875 C 8.625 -4.375 8.625 -4.609375 8.625 -4.75 Z M 4.75 -8.09375 C 6.21875 -8.09375 7.015625 -7.03125 7.140625 -5.171875 L 2.09375 -5.171875 C 2.265625 -7.078125 3.3125 -8.09375 4.75 -8.09375 Z M 4.75 -8.09375 "/></g></g></g><g fill="#000000" fill-opacity="1"><g transform="translate(316.655381, 94.581087)"><g><path d="M 5.765625 -9.21875 C 4.84375 -9.21875 3.890625 -8.921875 3.390625 -8.5 L 2.703125 -7.53125 L 2.703125 -8.984375 L 1.25 -8.984375 L 1.25 3.3125 L 2.703125 3.3125 L 2.703125 -1.234375 L 3.296875 -0.359375 C 3.765625 0.015625 4.703125 0.234375 5.453125 0.234375 C 7.78125 0.234375 9.84375 -1.296875 9.84375 -4.625 C 9.84375 -7.25 8.390625 -9.21875 5.765625 -9.21875 Z M 5.453125 -0.875 C 4.171875 -0.875 2.703125 -1.765625 2.703125 -4.078125 L 2.703125 -4.578125 C 2.703125 -7.140625 4.046875 -8.09375 5.53125 -8.09375 C 7.328125 -8.09375 8.25 -6.484375 8.25 -4.453125 C 8.25 -2.09375 7.03125 -0.875 5.453125 -0.875 Z M 5.453125 -0.875 "/></g></g></g><g fill="#000000" fill-opacity="1"><g transform="translate(327.394656, 94.581087)"><g><path d="M 4.78125 -9.1875 C 4.359375 -9.1875 3.890625 -9.03125 3.515625 -8.78125 L 2.703125 -7.578125 L 2.703125 -8.984375 L 1.25 -8.984375 L 1.25 0 L 2.703125 0 L 2.703125 -5.109375 C 2.703125 -7.171875 3.859375 -8.0625 5.390625 -7.953125 L 5.390625 -9.0625 C 5.21875 -9.140625 5.015625 -9.1875 4.78125 -9.1875 Z M 4.78125 -9.1875 "/></g></g></g><g fill="#000000" fill-opacity="1"><g transform="translate(333.374198, 94.581087)"><g><path d="M 1.984375 -11.921875 C 1.453125 -11.921875 1.046875 -11.515625 1.046875 -11 C 1.046875 -10.46875 1.453125 -10.0625 1.984375 -10.0625 C 2.5 -10.0625 2.90625 -10.46875 2.90625 -11 C 2.90625 -11.515625 2.5 -11.921875 1.984375 -11.921875 Z M 2.703125 0 L 2.703125 -8.984375 L 1.25 -8.984375 L 1.25 0 Z M 2.703125 0 "/></g></g></g><g fill="#000000" fill-opacity="1"><g transform="translate(337.795383, 94.581087)"><g><path d="M 3.859375 -9.21875 C 2.015625 -9.21875 0.765625 -8.234375 0.765625 -6.59375 C 0.765625 -5.015625 2.046875 -4.359375 3.65625 -3.90625 C 5.171875 -3.5 5.78125 -3.046875 5.78125 -2.1875 C 5.78125 -1.328125 5 -0.875 4.03125 -0.875 C 3 -0.875 2.171875 -1.34375 1.9375 -2.640625 L 0.40625 -2.640625 C 0.671875 -0.609375 2.078125 0.234375 3.921875 0.234375 C 5.828125 0.234375 7.265625 -0.609375 7.265625 -2.296875 C 7.265625 -3.828125 6.28125 -4.640625 4.21875 -5.1875 C 3 -5.5 2.25 -5.859375 2.25 -6.765625 C 2.25 -7.53125 2.734375 -8.09375 3.75 -8.09375 C 4.796875 -8.09375 5.4375 -7.46875 5.640625 -6.421875 L 7.171875 -6.421875 C 6.984375 -8.0625 5.875 -9.21875 3.859375 -9.21875 Z M 3.859375 -9.21875 "/></g></g></g><g fill="#000000" fill-opacity="1"><g transform="translate(345.959992, 94.581087)"><g><path d="M 8.625 -4.75 C 8.625 -7.375 7.25 -9.21875 4.78125 -9.21875 C 2.328125 -9.21875 0.515625 -7.375 0.515625 -4.453125 C 0.515625 -1.28125 2.25 0.234375 4.59375 0.234375 C 6.4375 0.234375 8.140625 -0.734375 8.5 -2.890625 L 6.984375 -2.890625 C 6.78125 -1.609375 5.828125 -0.875 4.65625 -0.875 C 3.34375 -0.875 2.21875 -1.671875 2.078125 -4.046875 L 8.59375 -4.046875 C 8.625 -4.375 8.625 -4.609375 8.625 -4.75 Z M 4.75 -8.09375 C 6.21875 -8.09375 7.015625 -7.03125 7.140625 -5.171875 L 2.09375 -5.171875 C 2.265625 -7.078125 3.3125 -8.09375 4.75 -8.09375 Z M 4.75 -8.09375 "/></g></g></g><g fill="#000000" fill-opacity="1"><g transform="translate(355.649057, 94.581087)"><g><path d="M 3.859375 -9.21875 C 2.015625 -9.21875 0.765625 -8.234375 0.765625 -6.59375 C 0.765625 -5.015625 2.046875 -4.359375 3.65625 -3.90625 C 5.171875 -3.5 5.78125 -3.046875 5.78125 -2.1875 C 5.78125 -1.328125 5 -0.875 4.03125 -0.875 C 3 -0.875 2.171875 -1.34375 1.9375 -2.640625 L 0.40625 -2.640625 C 0.671875 -0.609375 2.078125 0.234375 3.921875 0.234375 C 5.828125 0.234375 7.265625 -0.609375 7.265625 -2.296875 C 7.265625 -3.828125 6.28125 -4.640625 4.21875 -5.1875 C 3 -5.5 2.25 -5.859375 2.25 -6.765625 C 2.25 -7.53125 2.734375 -8.09375 3.75 -8.09375 C 4.796875 -8.09375 5.4375 -7.46875 5.640625 -6.421875 L 7.171875 -6.421875 C 6.984375 -8.0625 5.875 -9.21875 3.859375 -9.21875 Z M 3.859375 -9.21875 "/></g></g></g><g fill="#000000" fill-opacity="1"><g transform="translate(363.817965, 94.581087)"><g/></g></g></svg>